<?xml version="1.0" encoding="UTF-8"?>
<!DOCTYPE svg PUBLIC "-//W3C//DTD SVG 1.1//EN" "http://www.w3.org/Graphics/SVG/1.1/DTD/svg11.dtd">
<!-- Creator: CorelDRAW X6 -->
<svg xmlns="http://www.w3.org/2000/svg" xml:space="preserve" width="9in" height="1in" version="1.1" style="shape-rendering:geometricPrecision; text-rendering:geometricPrecision; image-rendering:optimizeQuality; fill-rule:evenodd; clip-rule:evenodd"
viewBox="0 0 8980 998"
 xmlns:xlink="http://www.w3.org/1999/xlink">
 <defs>
  <style type="text/css">
   <![CDATA[
    .str0 {stroke:#2B2A29;stroke-width:7.85627}
    .fil0 {fill:none}
    .fil31 {fill:#505159}
    .fil23 {fill:#7D7588}
    .fil30 {fill:#C5C1CA}
    .fil27 {fill:#D8DADC}
    .fil24 {fill:#EE7A88}
    .fil29 {fill:#EEEFF0}
    .fil28 {fill:#F7C6CC}
    .fil26 {fill:#FCE9EC}
    .fil25 {fill:#FEFEFE}
    .fil32 {fill:#5B5B5B}
    .fil3 {fill:#405EBC}
    .fil17 {fill:#454B54}
    .fil21 {fill:#66D1BD}
    .fil19 {fill:#676C68}
    .fil1 {fill:#69788B}
    .fil9 {fill:#69788C}
    .fil2 {fill:#86779C}
    .fil15 {fill:#888599}
    .fil6 {fill:#8EA4F6}
    .fil4 {fill:#AF4617}
    .fil5 {fill:#C8CFD8}
    .fil10 {fill:#CEEAE8}
    .fil18 {fill:#D82A4B}
    .fil8 {fill:#D9D4EE}
    .fil16 {fill:#E1E1E5}
    .fil13 {fill:#E97867}
    .fil7 {fill:#F49A84}
    .fil20 {fill:#F4D27A}
    .fil35 {fill:#FDBC5D}
    .fil36 {fill:#FEDD7A}
    .fil22 {fill:#FF9189}
    .fil12 {fill:#FFD199}
    .fil14 {fill:white}
    .fil33 {fill:#2B2A29;fill-rule:nonzero}
    .fil34 {fill:#B16503;fill-rule:nonzero}
    .fil11 {fill:white;fill-opacity:0.800000}
   ]]>
  </style>
 </defs>
 <g id="Layer_x0020_1">
  <metadata id="CorelCorpID_0Corel-Layer"/>
  <g id="_1091667824">
   <rect class="fil0" width="998" height="998"/>
   <rect class="fil0" x="1995" width="998" height="998"/>
   <rect class="fil0" x="3991" width="998" height="998"/>
   <rect class="fil0" x="5986" width="998" height="998"/>
   <rect class="fil0" x="7982" width="998" height="998"/>
   <g id="bike-icon.svg">
    <g>
     <path class="fil1" d="M4723 465c17,-9 36,-13 55,-17 25,-3 50,-2 74,5 40,11 73,33 98,66 21,26 33,56 37,89 5,36 0,70 -15,102 -20,44 -51,74 -94,94 -36,17 -74,21 -113,13 -57,-12 -100,-44 -128,-95 -19,-35 -26,-72 -21,-112 5,-39 21,-73 46,-102 11,-12 23,-23 36,-31 2,-1 2,0 2,1 3,6 6,13 9,20 0,1 0,2 0,2 -3,4 -8,6 -12,10 -21,19 -37,41 -47,68 -7,19 -10,39 -9,59 1,23 6,44 15,65 9,17 19,33 33,47 26,25 57,40 93,44 35,5 67,-2 98,-19 17,-9 32,-22 44,-36 13,-16 24,-34 30,-54 5,-14 7,-28 8,-43 2,-36 -7,-68 -27,-97 -21,-32 -51,-54 -88,-65 -20,-6 -40,-8 -59,-6 -18,2 -36,6 -51,13 -2,1 -3,2 -6,2 -1,0 -1,0 -2,-1 -3,-6 -6,-13 -8,-20 2,-1 2,-2 2,-2z"/>
     <path class="fil1" d="M4363 660c-3,25 -11,47 -24,69 -20,34 -48,59 -84,77 -28,13 -57,18 -88,17 -43,-2 -81,-18 -113,-46 -25,-21 -42,-47 -53,-77 -6,-16 -9,-32 -10,-49 -2,-22 0,-44 6,-65 12,-42 36,-75 70,-101 17,-12 35,-21 55,-28 2,-1 3,-2 5,-2 2,-1 2,-1 4,0 13,3 25,9 37,16 2,1 3,2 2,3 -3,2 -7,1 -10,2 -34,4 -64,17 -89,40 -31,25 -48,58 -53,97 -4,30 0,59 13,87 13,29 33,52 59,70 21,13 43,21 67,25 26,3 52,0 77,-9 18,-6 34,-17 49,-29 21,-17 35,-39 45,-63 3,-9 6,-18 8,-27 0,-2 1,-4 2,-6 1,-2 2,-2 3,-2 6,0 13,0 20,0 1,0 2,1 2,2z"/>
     <path class="fil2" d="M4723 465c0,6 3,9 5,14 1,3 2,6 4,9 4,4 5,9 7,14 2,3 3,6 5,9 12,25 25,48 40,71 1,2 2,2 3,4 3,7 8,13 12,19 5,7 10,14 15,21 4,6 3,12 -2,17 -5,5 -12,5 -17,2 -5,-4 -8,-9 -11,-13 -6,-9 -12,-17 -17,-25 -1,-1 -2,-2 -2,-3 -5,-9 -10,-17 -16,-27 -6,-11 -13,-22 -18,-33 -3,-6 -6,-12 -9,-18 -4,-8 -8,-16 -11,-24 0,-3 -2,-6 -3,-9 -2,-4 -3,-8 -5,-11 -1,-1 -1,-2 -2,-2 1,-1 1,-2 0,-3 -4,-11 -9,-22 -13,-33 0,0 -1,-1 -1,-1 -3,-5 -4,-10 -6,-15 0,-1 -1,-2 -1,-2 -10,-29 -18,-59 -26,-89 -1,-2 -1,-5 -2,-7 -1,-2 -2,-3 -4,-3 -2,0 -2,0 -4,0 -37,0 -74,0 -112,0 -2,0 -5,1 -6,-2 2,-1 4,0 6,0 39,0 78,0 116,0 3,0 4,0 3,-4 -5,-20 -8,-40 -12,-59 -2,-16 -6,-31 -7,-47 -1,-9 -9,-14 -17,-14 -16,0 -32,0 -48,0 -2,0 -2,1 -2,2 -2,14 -11,23 -26,23 -17,0 -32,0 -49,0 -12,0 -23,-9 -24,-21 -2,-13 6,-25 18,-28 2,-1 5,-1 6,-1 41,0 83,0 124,0 15,0 28,7 36,19 4,6 5,12 6,18 3,24 7,47 11,71 0,1 0,2 2,2 2,5 2,10 3,15 4,19 9,38 13,57 1,4 2,8 3,12 0,1 1,2 0,4 2,8 4,16 6,24 7,22 15,44 24,66 2,-2 2,1 4,2z"/>
     <path class="fil3" d="M4525 323c2,0 4,0 6,0 39,0 78,0 116,0 4,0 6,2 6,5 0,2 1,5 2,7 -2,2 -4,1 -6,1 -40,0 -79,-1 -118,0 -40,1 -70,20 -87,57 -5,10 -9,21 -13,30 -1,2 -2,5 -2,8 0,25 0,49 0,74 0,2 0,4 -1,6 -4,1 -9,2 -13,-1 -1,-2 -1,-4 -1,-6 0,-21 0,-41 0,-62 0,-7 0,-7 -7,-7 -47,0 -94,0 -141,0 -5,0 -8,-1 -11,-4 -9,-8 -17,-16 -25,-24 -13,-12 -26,-24 -42,-32 -17,-9 -35,-13 -54,-14 -38,-2 -75,0 -113,-1 -1,0 -1,0 -2,0 -1,1 0,2 1,2 12,17 25,33 37,50 4,6 8,10 12,16 2,4 6,6 10,6 14,0 28,2 41,5 22,4 43,12 61,25 27,19 43,44 47,77 1,5 0,10 0,15 0,12 0,24 0,36 0,2 1,4 -2,6 -3,1 -6,1 -9,1 -2,0 -3,-2 -3,-3 0,-2 0,-2 0,-4 0,-14 0,-28 0,-43 0,-2 0,-3 0,-5 -2,-16 -8,-31 -17,-44 -6,-9 -13,-16 -22,-22 -2,-2 -4,-2 -6,-5 -13,-9 -28,-14 -44,-18 -13,-3 -27,-6 -40,-6 -6,0 -12,-1 -18,-1 -2,0 -3,-2 -5,-3 -11,-15 -23,-30 -34,-46 -12,-16 -24,-32 -36,-48 -1,-1 -2,-2 -2,-2 1,-1 2,-1 2,-1 44,0 89,0 134,0 1,0 2,0 2,0 6,1 11,0 16,1 14,2 28,6 40,10 19,9 35,21 50,35 9,9 17,17 27,25 1,1 2,2 4,2 15,0 29,0 44,0 4,0 7,-2 11,-1 15,3 31,1 46,2 16,0 31,0 47,0 6,-13 11,-28 18,-41 21,-34 51,-54 92,-56z"/>
     <path class="fil2" d="M4416 509c4,0 8,-1 12,1 2,-2 4,0 6,1 13,6 20,17 21,31 0,14 0,28 0,43 0,5 0,9 -2,13 -6,31 -29,55 -60,60 -9,2 -18,1 -28,2 -7,0 -14,0 -21,0 -2,0 -3,1 -4,2 -3,-2 -6,-2 -9,-2 -6,0 -12,0 -17,0 -20,0 -40,0 -59,0 -11,0 -21,0 -32,0 -9,0 -17,0 -25,0 -20,0 -40,0 -59,0 -13,0 -27,0 -40,0 -4,0 -6,-1 -6,-6 0,-18 0,-36 0,-54 0,-5 1,-6 6,-6 13,0 28,0 41,0 3,0 6,0 9,0 3,1 6,0 9,0 17,0 35,0 53,0 1,0 2,0 2,0 3,0 4,-2 4,-5 0,-14 0,-28 0,-43 0,-2 -1,-4 2,-6 1,2 1,3 1,4 0,16 0,31 0,47 0,2 1,4 3,4 3,0 6,0 9,0 2,-2 4,-1 6,-1 46,0 93,0 138,0 13,0 16,-4 16,-16 0,-13 0,-26 0,-39 0,-14 9,-26 21,-31 2,-2 4,-2 6,-2z"/>
     <path class="fil3" d="M4451 597c1,-5 2,-9 2,-13 1,-1 2,-1 4,-1 14,0 28,-2 43,-4 18,-3 35,-9 51,-17 28,-13 52,-32 74,-55 20,-22 36,-47 50,-74 2,-4 3,-8 6,-10 2,6 5,12 6,17 -12,25 -27,47 -44,68 -26,30 -56,55 -93,70 -25,10 -51,17 -78,18 -7,-1 -13,-2 -20,0z"/>
     <path class="fil3" d="M4690 371c-2,-5 -2,-9 -4,-15 2,-1 3,0 5,1 5,2 10,2 16,2 13,0 28,0 41,0 5,0 5,0 5,-5 0,-21 0,-43 0,-64 0,-4 0,-5 -5,-5 -15,0 -30,0 -45,0 -9,0 -18,3 -25,10 -1,2 -2,2 -4,2 -1,-5 -3,-9 -2,-15 9,-8 21,-12 34,-12 19,0 39,0 58,0 3,0 4,1 4,4 0,31 0,62 0,93 0,2 0,4 -3,4 -21,0 -40,0 -61,0 -6,0 -9,0 -13,-1z"/>
     <path class="fil4" d="M4187 360c-12,-4 -23,-8 -36,-10 -6,-1 -12,-2 -17,-2 -2,0 -3,1 -4,-1 14,0 28,0 43,0 25,0 50,0 75,0 28,0 49,13 62,37 6,11 12,23 17,34 1,2 2,3 5,3 28,0 56,0 84,0 -2,1 -2,0 -4,0 -25,0 -49,0 -74,0 -6,0 -12,-1 -18,-1 -17,2 -33,0 -50,1 -2,0 -2,0 -4,0 2,-2 3,-2 5,-2 13,0 27,0 41,0 -6,-11 -11,-23 -17,-34 -10,-17 -25,-25 -44,-25 -18,0 -36,0 -55,0 -3,1 -6,1 -9,0z"/>
     <path class="fil5" d="M4709 502c2,2 3,6 5,9 2,5 5,9 6,14 -5,4 -9,8 -13,12 -17,17 -30,38 -36,63 -3,12 -5,23 -5,36 0,16 2,31 8,46 6,18 17,34 30,48 10,10 21,19 33,26 15,8 31,13 48,16 15,2 30,2 45,-2 22,-5 43,-14 60,-29 25,-21 41,-48 47,-81 6,-40 -3,-78 -29,-109 -21,-25 -46,-40 -78,-47 -21,-5 -42,-4 -63,2 -9,2 -17,6 -25,9 -4,-8 -8,-16 -11,-24 16,-8 32,-13 50,-15 18,-2 37,-2 55,2 28,6 53,19 74,38 29,26 47,59 52,97 5,32 1,62 -13,90 -17,37 -44,64 -82,81 -17,8 -35,12 -54,13 -28,2 -54,-2 -78,-13 -33,-15 -59,-38 -76,-70 -12,-21 -18,-44 -20,-67 -2,-39 7,-74 30,-106 9,-17 22,-29 37,-40z"/>
     <path class="fil5" d="M4313 660c8,0 15,0 23,0 2,0 3,0 3,2 -6,28 -17,54 -35,76 -17,21 -38,36 -63,47 -22,9 -45,13 -69,13 -28,-1 -53,-9 -77,-23 -22,-13 -40,-31 -54,-53 -11,-17 -18,-36 -22,-57 -2,-14 -3,-29 -2,-44 2,-25 9,-48 23,-70 18,-30 44,-52 77,-66 17,-7 36,-12 55,-12 11,7 21,15 28,26 -3,2 -6,1 -9,0 -10,-2 -21,-1 -31,1 -50,9 -85,36 -106,83 -8,18 -11,37 -10,57 2,32 12,60 33,85 15,17 33,30 55,39 14,6 28,9 44,9 17,0 34,-2 50,-8 28,-9 49,-27 66,-51 10,-15 17,-31 21,-48 -3,-4 -2,-6 -2,-6z"/>
     <path class="fil6" d="M4680 423c-12,25 -26,50 -44,71 -16,20 -35,37 -55,51 -17,11 -34,20 -53,26 -16,6 -32,9 -49,10 -8,1 -17,2 -25,1 0,-14 0,-29 0,-44 0,-15 -11,-28 -25,-31 0,-25 0,-51 0,-76 0,-6 2,-12 4,-18 4,-9 7,-17 11,-26 11,-23 28,-40 52,-50 13,-5 26,-7 40,-7 40,0 80,0 120,0 5,18 9,36 15,55 3,10 6,21 10,32 -2,4 -2,5 -2,6z"/>
     <path class="fil1" d="M4786 587c29,-10 62,9 66,40 4,35 -25,63 -60,55 -18,-4 -31,-16 -37,-34 -6,-17 -2,-32 9,-47 2,0 2,2 3,3 7,11 15,22 23,32 2,3 5,6 9,8 5,2 10,-1 13,-5 3,-5 3,-9 0,-14 -9,-13 -17,-25 -26,-37 -1,-1 0,-2 0,-2z"/>
     <path class="fil6" d="M4672 299c6,-6 13,-12 21,-13 3,-1 6,-1 9,-1 16,0 32,0 47,0 2,0 4,1 4,3 0,23 0,45 0,68 0,2 -1,4 -3,4 -16,0 -32,0 -48,0 -6,0 -10,-2 -15,-3 -6,-20 -10,-39 -14,-58z"/>
     <path class="fil6" d="M4416 509c-8,2 -15,6 -20,13 -4,6 -6,12 -6,18 0,14 0,28 0,43 0,7 -6,13 -13,13 -50,0 -100,0 -150,0 0,-17 0,-33 0,-50 -1,-22 -9,-42 -22,-59 -21,-27 -50,-40 -82,-47 -14,-3 -28,-5 -43,-6 -6,0 -11,-2 -15,-7 -13,-18 -27,-36 -40,-55 -3,-4 -6,-9 -9,-13 2,0 2,1 4,1 34,0 68,0 102,0 25,0 47,5 69,17 11,6 21,13 30,21 13,11 25,23 37,35 2,2 4,2 6,2 49,0 97,0 146,0 6,0 6,0 6,6 0,23 0,47 0,70z"/>
     <path class="fil7" d="M4187 360c22,0 44,-1 66,0 19,1 33,9 43,25 6,11 12,23 17,34 0,1 0,1 1,2 -16,0 -32,0 -47,0 -8,-6 -15,-14 -23,-21 -13,-13 -28,-25 -44,-35 -4,-2 -8,-4 -12,-6z"/>
     <path class="fil8" d="M4244 647c-46,0 -91,0 -137,0 -3,0 -4,-1 -4,-4 0,-9 0,-20 0,-29 0,-3 1,-4 4,-4 12,0 24,0 36,0 78,0 155,0 233,0 17,0 27,-11 27,-28 0,-13 0,-27 0,-40 0,-10 8,-19 18,-20 10,0 19,9 19,20 0,15 0,29 0,44 0,30 -24,57 -54,61 -4,1 -7,1 -11,1 -43,-1 -86,-1 -131,-1z"/>
     <path class="fil1" d="M4220 661c-10,16 -25,24 -44,24 -18,0 -32,-9 -42,-25 28,0 55,0 82,0 2,0 2,-1 3,1z"/>
     <path class="fil9" d="M4146 596c17,-16 47,-16 64,0 -1,1 -2,1 -2,1 -20,0 -40,0 -59,0 -2,-1 -2,0 -3,-1z"/>
    </g>
   </g>
   <g id="car-icon.svg">
    <path class="fil10" d="M2095 435l63 -199c11,-38 42,-66 81,-73l0 0c47,-7 94,-11 141,-11l114 0 114 0c47,0 95,4 141,11l0 0c39,6 71,35 81,73l63 199m-799 0l0 0 0 0z"/>
    <g>
     <path class="fil11" d="M2829 431c-9,0 -16,-6 -19,-14l-63 -199c-3,-11 2,-22 13,-25 11,-3 22,2 25,13l63 199c3,11 -2,22 -13,25 -2,1 -3,1 -6,1z"/>
    </g>
    <path class="fil12" d="M2832 762l36 0c42,0 76,-34 76,-76l0 -140 0 -14c0,-61 -45,-112 -106,-120l0 0c-114,-15 -229,-23 -344,-23 -115,0 -230,7 -344,23l0 0c-60,8 -106,59 -106,120l0 14 0 154c0,34 28,61 61,61l52 0m675 0l0 0 0 0z"/>
    <path class="fil13" d="M2219 762l613 0 36 0c1,0 2,0 2,0l-651 0 0 0z"/>
    <path class="fil13" d="M2168 762l52 0 -53 0c0,0 0,0 1,0z"/>
    <path class="fil14" d="M2343 626l0 -79 151 0 153 0 0 79m-304 0z"/>
    <path class="fil15" d="M2045 547l-23 0c-8,0 -15,6 -15,15l0 268c0,8 6,15 15,15l120 0c8,0 15,-6 15,-15l0 -69 -83 -7 -30 -41 1 -166z"/>
    <path class="fil15" d="M2943 567l24 -20c8,0 15,6 15,15l0 268c0,8 -6,15 -15,15l-120 0c-8,0 -15,-6 -15,-15l0 -69 81 0 31 -31 -2 -163z"/>
    <path class="fil14" d="M2967 797l-120 0c-8,0 -15,-6 -15,-15l0 48c0,8 6,15 15,15l120 0c8,0 15,-6 15,-15l0 -48c0,8 -6,15 -15,15z"/>
    <path class="fil16" d="M2944 687l0 37c0,20 -17,37 -37,37l-412 0 -412 0c-20,0 -37,-17 -37,-37l0 -38 451 0 448 1z"/>
    <path class="fil16" d="M2255 547c8,0 15,6 15,15l0 50c0,8 -6,15 -15,15l-211 0 0 -79 211 0z"/>
    <path class="fil14" d="M2106 701l1 -154 0 -14c0,-61 45,-112 106,-120l0 0c104,-14 209,-21 313,-23 -11,0 -20,0 -31,0 -115,0 -230,7 -344,23l0 0c-60,8 -106,59 -106,120l0 14 -1 154c0,34 28,61 61,61l52 0 9 0c-33,-1 -60,-27 -60,-61z"/>
    <path class="fil16" d="M2944 547l-210 0c-8,0 -15,6 -15,15l0 50c0,8 6,15 15,15l209 0 1 -79 0 0z"/>
    <g>
     <path class="fil17" d="M2967 535l-11 0 0 -2c0,-42 -20,-80 -51,-104l-63 -196c-11,-43 -47,-74 -91,-82 -47,-7 -96,-11 -144,-11l-227 0c-48,0 -96,4 -143,11 -44,6 -80,39 -91,81l-63 196c-32,24 -51,62 -51,104l0 2 -11 0c-15,0 -27,12 -27,27l0 268c0,15 12,27 27,27l120 0c15,0 27,-12 27,-27l0 -57 650 0 0 57c0,15 12,27 27,27l120 0c15,0 27,-12 27,-27l0 -268c1,-15 -11,-27 -26,-27zm-797 -295c9,-33 37,-58 71,-64 46,-7 93,-11 140,-11l227 0c46,0 93,3 140,11 34,6 63,31 71,65l54 171c-11,-4 -22,-7 -33,-9 -114,-16 -231,-23 -346,-23 -115,0 -231,8 -346,23 -11,2 -23,5 -33,9l54 -171zm85 319c2,0 2,2 2,2l0 50c0,2 -2,2 -2,2l-199 0 0 -55 199 0zm-173 190c-14,0 -25,-11 -25,-25l0 -25 875 0 0 25c0,14 -11,25 -25,25l-825 0zm887 82c0,2 -2,2 -2,2l-120 0c-2,0 -2,-2 -2,-2l0 -57 63 0 0 0c28,0 50,-22 50,-49l0 -37c0,-6 -6,-12 -12,-12l-899 0 0 0c-3,0 -6,2 -9,3 -2,2 -4,5 -4,8l0 37c0,27 22,49 50,49l63 0 0 57c0,2 -2,2 -2,2l-120 0c-2,0 -2,-2 -2,-2l0 -268c0,-2 2,-2 2,-2l10 0 0 67c0,6 6,12 12,12l210 0c15,0 27,-12 27,-27l0 -50c0,-15 -12,-27 -27,-27l-197 0 0 -2c0,-54 41,-100 95,-107 113,-15 228,-23 343,-23 114,0 230,7 343,23 54,7 95,53 95,107l0 2 -198 0c-15,0 -27,12 -27,27l0 50c0,15 12,27 27,27l209 0c6,0 12,-6 12,-12l0 -67 11 0c2,0 2,2 2,2l1 269 0 0zm-37 -272l0 55 -198 0c-2,0 -2,-2 -2,-2l0 -50c0,-2 2,-2 2,-2l198 0z"/>
     <path class="fil17" d="M2647 535l-304 0c-6,0 -12,6 -12,12l0 79c0,6 6,12 12,12 6,0 12,-6 12,-12l0 -67 279 0 0 67c0,6 6,12 12,12 6,0 12,-6 12,-12l0 -79c0,-6 -6,-12 -12,-12z"/>
    </g>
   </g>
   <g id="term-icon.svg">
    <g>
     <path class="fil18" d="M6471 482c-22,1 -44,6 -65,14 -36,12 -68,30 -100,52 -3,2 -5,2 -7,-1 -28,-30 -62,-51 -102,-61 -37,-10 -73,-6 -108,6 -34,12 -65,31 -93,54 -1,1 -2,2 -4,3 0,-10 -1,-19 0,-28 2,-27 6,-54 12,-80 12,-52 32,-101 61,-146 70,-109 168,-180 292,-214 27,-7 54,-12 82,-14 11,-1 22,-2 33,-2 9,-2 18,-2 26,0 87,2 169,25 244,71 110,67 184,162 220,286 8,26 13,53 15,80 2,16 2,32 3,48 -2,0 -4,-2 -5,-3 -34,-28 -72,-50 -116,-60 -53,-13 -103,-2 -148,27 -15,10 -29,21 -41,35 -3,3 -5,1 -6,-1 -33,-22 -67,-41 -104,-53 -20,-6 -40,-12 -61,-12 -10,2 -18,2 -27,1z"/>
     <path class="fil19" d="M6471 482c9,-2 18,-2 26,0 0,140 0,281 0,422 0,30 19,55 46,64 37,11 76,-13 83,-51 1,-4 0,-9 2,-10 2,-2 8,-1 12,-1 3,0 6,0 10,0 4,0 4,2 4,5 -4,54 -49,93 -102,87 -41,-5 -75,-39 -80,-81 -1,-6 -1,-13 -1,-19 -1,-138 -1,-277 -1,-415z"/>
     <path class="fil19" d="M6498 64c-9,0 -18,0 -26,0 0,-19 0,-39 0,-59 0,-5 2,-6 6,-6 5,0 10,0 15,0 4,0 6,1 6,6 -1,19 0,39 0,59z"/>
     <path class="fil20" d="M6660 530c-14,-9 -27,-17 -41,-24 -31,-16 -64,-29 -98,-35 -15,-2 -30,-5 -45,-3 -29,2 -56,8 -83,18 -29,11 -55,25 -80,41 -2,1 -3,3 -5,2 -1,-1 -1,-3 -1,-5 1,-26 2,-52 4,-78 4,-46 11,-91 22,-136 12,-49 29,-96 55,-139 11,-18 23,-35 37,-51 15,-16 31,-30 49,-42 5,-3 10,-3 15,0 37,23 65,55 87,92 18,31 32,63 43,96 10,31 18,61 23,92 3,18 6,36 9,55 2,18 3,36 5,55 3,20 3,39 3,60z"/>
     <path class="fil21" d="M6513 78c281,19 444,247 452,444 -8,-5 -16,-10 -23,-15 -30,-18 -63,-31 -98,-37 -49,-7 -93,3 -135,29 -12,7 -23,16 -34,26 -2,-2 -1,-4 -1,-6 -1,-24 -2,-47 -4,-71 -2,-26 -6,-51 -10,-75 -3,-22 -8,-43 -14,-63 -10,-40 -24,-79 -42,-116 -14,-28 -31,-55 -53,-78 -11,-12 -23,-23 -37,-33 -1,-2 -1,-2 -2,-4z"/>
     <path class="fil22" d="M6296 524c-18,-16 -37,-29 -58,-39 -22,-10 -45,-16 -68,-18 -49,-3 -92,11 -134,35 -10,6 -20,13 -30,19 5,-185 161,-422 451,-444 -1,2 -3,3 -5,5 -28,21 -49,47 -68,76 -18,27 -30,56 -41,87 -15,40 -25,82 -32,124 -4,22 -6,45 -9,67 -4,28 -6,57 -6,87z"/>
    </g>
   </g>
   <g id="health-icon_x0020_2.eps">
    <path class="fil23" d="M591 84l-27 -14 0 -41 27 -13c24,-12 54,6 54,33 0,28 -30,46 -54,34z"/>
    <path class="fil23" d="M885 510c-9,-12 -27,-14 -39,-6 -35,23 -75,35 -117,35 -41,0 -80,-11 -115,-34 -13,-8 -30,-6 -39,6 -10,13 -6,32 7,41 27,18 57,30 89,37 19,4 31,20 31,40l0 102c0,14 9,26 23,28 19,4 34,-11 34,-28l0 -103c0,-19 13,-35 31,-40 31,-7 61,-20 89,-38 14,-9 17,-28 7,-41z"/>
    <path class="fil24" d="M571 174c-65,0 -124,29 -164,75 -40,-45 -98,-75 -164,-75 -120,0 -218,99 -218,220 0,69 31,131 80,170l302 240 296 -236c52,-39 86,-102 86,-174 0,-121 -98,-220 -218,-220z"/>
    <path class="fil25" d="M191 565c-44,-49 -80,-102 -80,-170 0,-107 76,-196 175,-216 -14,-2 -28,-4 -43,-4 -120,-1 -218,98 -218,219 0,69 31,131 80,170l302 240 -216 -239z"/>
    <path class="fil26" d="M731 415c-11,0 -20,-9 -20,-20 0,-39 -16,-74 -41,-99 -25,-25 -60,-41 -98,-41 -11,0 -20,-9 -20,-20 0,-11 9,-20 20,-20 0,0 0,0 0,0 49,0 94,20 127,53 32,33 53,78 53,128 0,11 -9,20 -20,20z"/>
    <path class="fil23" d="M863 84l27 -13 0 -41 -27 -13c-25,-12 -54,6 -54,33 0,28 29,45 54,33z"/>
    <path class="fil27" d="M251 273c56,0 101,45 101,101 0,56 -45,101 -101,101 -56,0 -101,-45 -101,-101 0,-56 45,-101 101,-101z"/>
    <path class="fil23" d="M251 313c33,0 60,27 60,61 0,34 -27,61 -60,61 -33,0 -60,-27 -60,-61 0,-34 27,-61 60,-61z"/>
    <path class="fil28" d="M180 446c-19,-19 -30,-44 -30,-72l0 0c0,28 11,54 30,72l0 0zm71 -174c0,0 0,0 0,0 0,0 0,0 0,0z"/>
    <path class="fil29" d="M180 446c-18,-18 -30,-44 -30,-72 0,-56 45,-101 101,-101 0,0 0,0 0,0 0,0 0,0 0,0 28,0 53,12 72,31l-28 28c-11,-11 -26,-19 -43,-19 -33,0 -60,27 -60,61 0,17 7,32 18,44l-29 29z"/>
    <path class="fil30" d="M209 417c-11,-11 -18,-26 -18,-44 0,-34 27,-61 60,-61 17,0 32,7 43,19l-86 86z"/>
    <path class="fil31" d="M243 187c59,0 115,26 154,71 5,5 14,5 19,0 39,-45 96,-71 154,-71 114,0 207,93 207,208 0,49 -18,97 -49,134 -10,11 -21,22 -33,32 -1,1 -2,1 -2,2l-286 229 -144 -115 0 -188c56,-6 101,-54 101,-113 0,-62 -51,-114 -113,-114 -62,0 -113,51 -113,114 0,58 44,107 101,113l0 169 -126 -99 -1 -1c-48,-40 -76,-98 -76,-161 1,-114 93,-208 207,-208zm609 329c8,-5 18,-4 23,3 2,3 4,8 3,12 -1,4 -3,8 -7,11 -26,17 -55,30 -84,37 -24,6 -41,27 -41,51l0 103c0,5 -2,10 -6,12 -4,3 -9,4 -14,3 -7,-2 -13,-9 -13,-16l0 -101c0,-15 -6,-29 -17,-39l14 -11c1,-1 1,-1 2,-2 10,-8 19,-17 28,-26 41,-2 80,-15 113,-37zm-601 -52c-49,0 -89,-40 -89,-89 0,-49 39,-89 89,-89 49,0 89,40 89,89 0,49 -40,89 -89,89zm239 510c-126,0 -228,-103 -228,-230l0 -38 137 109c2,2 5,2 7,2 2,0 6,-1 7,-2l262 -209c8,5 12,14 12,24l0 102c0,18 11,33 27,39 -11,115 -109,204 -225,204zm86 -936l20 -10c3,-2 7,-2 11,-2 12,0 25,10 25,25 0,15 -13,25 -25,25 -4,0 -8,-1 -11,-2l-20 -10 0 -26zm301 25l-20 10c-3,2 -7,2 -11,2 -12,0 -25,-10 -25,-25 0,-15 13,-25 25,-25 4,0 8,1 11,2l20 10 0 26zm-781 512l1 1 141 112 0 57c0,140 113,254 252,254 128,0 237,-99 250,-226 6,-2 10,-4 14,-7 10,-8 14,-19 14,-32l0 -104c0,-13 9,-24 22,-28 33,-7 64,-21 93,-40 9,-6 15,-16 18,-27 1,-6 0,-14 -2,-20 54,-49 84,-118 84,-191l0 -180c0,-50 -35,-93 -84,-104l0 -11c0,-5 -2,-9 -6,-11l-27 -13c-7,-3 -14,-6 -22,-6 -27,0 -49,23 -49,49 0,27 23,49 49,49 8,0 15,-2 22,-6l27 -13c4,-2 6,-6 6,-11l0 -6c35,10 60,42 60,79l0 180c0,65 -27,127 -75,171 -14,-10 -32,-11 -47,0 -23,15 -50,26 -77,30 26,-38 40,-84 40,-130 0,-128 -103,-232 -230,-232 -25,0 -50,4 -73,12l0 -31c0,-35 23,-66 54,-77l0 4c0,5 2,9 6,11l27 13c7,3 14,6 22,6 27,0 49,-23 49,-49 0,-27 -23,-49 -49,-49 -8,0 -15,2 -22,6l-27 13c-4,2 -6,6 -6,11l0 11c-46,12 -78,54 -78,103l0 41c-24,11 -47,28 -66,47 -43,-44 -102,-69 -164,-69 -127,0 -230,104 -230,232 -1,70 30,135 83,180z"/>
    <path class="fil31" d="M251 415c-23,0 -40,-18 -40,-41 0,-23 18,-41 40,-41 23,0 40,18 40,41 0,23 -19,41 -40,41zm0 -105c-35,0 -64,29 -64,65 0,36 29,65 64,65 35,0 64,-29 64,-65 0,-36 -29,-65 -64,-65z"/>
   </g>
   <g>
    <path class="fil0 str0" d="M8014 514l411 -415c33,-33 86,-33 120,-1l231 227c33,33 33,86 1,119l-51 51 -320 323c-17,-38 -55,-65 -100,-65 -45,0 -84,27 -101,67l-190 -187c-33,-33 -33,-86 -1,-119z"/>
    <circle class="fil32" cx="8305" cy="862" r="62"/>
    <path class="fil33" d="M8305 793c19,0 37,8 49,20 13,13 20,30 20,49 0,19 -8,37 -20,49 -13,13 -30,20 -49,20 -19,0 -37,-8 -49,-20 -13,-13 -20,-30 -20,-49 0,-19 8,-37 20,-49 13,-13 30,-20 49,-20zm38 32c-10,-10 -23,-16 -38,-16 -15,0 -28,6 -38,16 -10,10 -16,23 -16,38 0,15 6,28 16,38 10,10 23,16 38,16 15,0 28,-6 38,-16 10,-10 16,-23 16,-38 0,-15 -6,-28 -16,-38z"/>
    <path class="fil34" d="M8778 452c-5,5 -12,5 -17,0 -5,-5 -5,-12 0,-17l190 -193 -50 -50c-5,-5 -5,-12 0,-17 5,-5 12,-5 17,0l58 58 0 0c5,5 5,12 0,17l-198 201z"/>
    <path class="fil35" d="M8082 699l533 -532 -70 -69c-33,-33 -87,-32 -120,1l-411 415c-33,33 -32,87 1,119l67 66z"/>
    <path class="fil34" d="M8082 688l522 -520 -64 -63c-15,-15 -35,-22 -54,-22 -20,0 -39,8 -54,23l-411 415c-15,15 -22,35 -22,54 0,20 8,39 23,54l61 60zm539 -515l-533 532 -6 6 -6 -6 -67 -66c-18,-18 -27,-41 -27,-65 0,-24 9,-47 27,-65l411 -415c18,-18 42,-27 65,-27 24,0 47,9 66,27l70 69 6 6 -6 6z"/>
    <path class="fil36" d="M8615 167l-533 532 123 121c17,-39 56,-67 101,-67 45,0 83,27 100,65l101 -102 0 0 280 -285c22,-33 18,-78 -11,-106l-161 -158z"/>
    <path class="fil34" d="M8615 178l-522 520 109 107c9,-17 22,-31 38,-42 19,-12 41,-19 65,-19 24,0 46,7 64,19 16,10 29,24 38,41l93 -94 0 0 0 0 0 0 280 -284c10,-15 13,-32 12,-49l0 0c-2,-17 -9,-33 -22,-46l-155 -153zm-539 515l533 -532 6 -6 6 6 161 158c16,16 25,35 27,56l0 0c2,21 -3,42 -14,60l0 1 -1 1 -280 285 0 0 0 0 0 0 -101 102 -8 8 -5 -11c-8,-18 -21,-33 -38,-44 -16,-10 -35,-16 -55,-16 -21,0 -40,6 -56,17 -17,11 -30,27 -38,45l-5 11 -8 -8 -123 -121 -6 -6 6 -6z"/>
   </g>
  </g>
 </g>
</svg>
