<?xml version="1.0" encoding="UTF-8"?>
<!DOCTYPE svg PUBLIC "-//W3C//DTD SVG 1.1//EN" "http://www.w3.org/Graphics/SVG/1.1/DTD/svg11.dtd">
<!-- Creator: CorelDRAW X6 -->
<svg xmlns="http://www.w3.org/2000/svg" xml:space="preserve" width="1.20188in" height="0.358043in" version="1.1" style="shape-rendering:geometricPrecision; text-rendering:geometricPrecision; image-rendering:optimizeQuality; fill-rule:evenodd; clip-rule:evenodd"
viewBox="0 0 363 108"
 xmlns:xlink="http://www.w3.org/1999/xlink">
 <defs>
  <style type="text/css">
   <![CDATA[
    .str0 {stroke:#FECC00;stroke-width:0.906147}
    .fil0 {fill:#FECC00}
   ]]>
  </style>
 </defs>
 <g id="Layer_x0020_1">
  <metadata id="CorelCorpID_0Corel-Layer"/>
  <g id="_883318624">
   <path class="fil0 str0" d="M11 87c0,-4 0,-3 1,-6l6 -22c1,-3 2,-6 2,-9 1,0 1,0 2,0 0,2 0,5 0,7 3,16 11,11 21,11 3,0 7,-1 10,-1 0,8 1,15 1,23 -1,1 -3,2 -5,2 -9,4 -23,5 -33,2 -3,-1 -7,-3 -7,-7zm17 21c7,0 31,-3 35,-8 2,-2 3,-7 3,-11l0 -21c0,-5 -1,-9 -5,-11 -2,-1 -3,-1 -6,-2 -9,-1 -13,0 -21,0 0,-5 -1,-7 0,-15 1,-7 3,-13 4,-20 1,-5 4,-16 4,-20 -1,0 -2,1 -3,2 -7,5 -13,14 -17,22 -7,12 -13,25 -17,39 -2,7 -5,21 -5,28 1,13 18,17 28,17z"/>
   <path class="fil0 str0" d="M113 86c-3,0 -13,-1 -15,-2 -10,-3 -7,-10 -7,-19 0,-4 5,-18 6,-21 4,2 5,12 10,15 4,2 18,1 24,1 -1,4 -7,21 -10,23 -2,1 -5,3 -8,3zm-32 -17c0,7 0,19 6,24 5,5 24,5 32,5 5,0 9,-2 11,-4 3,-3 8,-17 10,-22 3,-6 7,-15 -1,-20 -4,-3 -13,-4 -18,-5l-10 -2 -7 -40c-8,0 -10,12 -12,20l-5 17c-3,9 -6,15 -6,27z"/>
  </g>
  <g id="_883327200">
   <path class="fil0 str0" d="M330 83l-18 0c1,-1 1,-16 1,-19 3,0 11,-2 15,-2 5,-1 10,-1 14,-3 5,-4 4,-9 7,-19 1,-2 1,-5 2,-6 0,2 1,3 1,6 2,13 0,23 -4,35 -3,8 -10,9 -18,9zm-29 11l29 0c2,0 3,0 5,0 9,0 16,1 21,-11 2,-5 6,-30 6,-37 0,-16 -12,-32 -15,-32 -2,0 -5,1 -6,2 0,0 0,0 0,0 -6,6 -1,25 -8,30 -3,2 -8,3 -13,3 -19,0 -17,12 -18,28 0,5 -1,10 -1,15z"/>
   <path class="fil0 str0" d="M255 78l-22 0 2 -17 14 0c13,0 20,3 25,-11 0,-1 1,-3 2,-5 0,-1 1,-1 1,-2 1,-2 1,-2 1,-2 0,6 0,9 -1,14 -1,4 -2,8 -4,12 -5,11 -7,11 -18,11zm-22 -30c-8,0 -9,7 -9,14 0,2 0,3 0,5 0,6 -2,12 0,17 2,6 14,4 20,4 5,1 18,2 23,2 7,0 11,-11 14,-17 7,-14 7,-22 7,-37 0,-12 -9,-24 -13,-22 -8,4 -5,17 -9,26 -1,4 -4,5 -8,7 -13,4 -18,0 -25,0z"/>
  </g>
 </g>
</svg>
