<?xml version="1.0" encoding="UTF-8"?>
<!DOCTYPE svg PUBLIC "-//W3C//DTD SVG 1.1//EN" "http://www.w3.org/Graphics/SVG/1.1/DTD/svg11.dtd">
<!-- Creator: CorelDRAW X6 -->
<svg xmlns="http://www.w3.org/2000/svg" xml:space="preserve" width="1.97456in" height="0.804543in" version="1.1" style="shape-rendering:geometricPrecision; text-rendering:geometricPrecision; image-rendering:optimizeQuality; fill-rule:evenodd; clip-rule:evenodd"
viewBox="0 0 2991 1219"
 xmlns:xlink="http://www.w3.org/1999/xlink">
 <defs>
  <style type="text/css">
   <![CDATA[
    .fil0 {fill:#FECC00}
    .fil1 {fill:#020202}
   ]]>
  </style>
 </defs>
 <g id="Layer_x0020_1">
  <metadata id="CorelCorpID_0Corel-Layer"/>
  <g id="_1080571120">
   <path class="fil0" d="M499 474l-7 1c-1,0 -3,0 -4,0l-46 -4c-18,-1 -35,1 -54,1 -40,-1 -70,5 -108,5 -75,1 -154,-13 -216,22 19,59 217,149 284,184 50,26 58,29 51,76 -8,62 -26,129 -36,190 -7,41 -22,122 -23,163l7 27c50,-42 92,-92 138,-149 31,-39 104,-146 138,-164 92,39 199,155 304,219 16,10 101,57 108,58 -4,-25 -19,-74 -30,-101l-77 -199c-12,-33 -32,-69 -45,-100 24,-45 36,-59 72,-84 70,-48 184,-131 240,-188 -19,-7 -369,10 -431,15 -10,-13 -61,-161 -69,-186 -13,-41 -25,-153 -67,-188 -62,127 -89,333 -130,401z"/>
   <path class="fil1" d="M499 474c41,-68 68,-274 130,-401 42,35 54,146 67,188 8,25 59,173 69,186 63,-6 413,-22 431,-15 -56,57 -170,140 -240,188 -36,25 -48,39 -72,84 12,31 33,67 45,100l77 199c10,27 26,76 30,101 -7,-1 -92,-49 -108,-58 -105,-64 -213,-180 -304,-219 -33,18 -106,126 -138,164 -46,57 -88,107 -138,149l-7 -27c0,-41 16,-123 23,-163 10,-61 28,-128 36,-190 6,-48 -1,-50 -51,-76 -68,-35 -265,-124 -284,-184 62,-35 141,-20 216,-22 38,-1 68,-6 108,-5 20,0 36,-2 54,-1l46 4c1,0 3,0 4,0l7 -1zm102 -437c-49,83 -59,121 -84,205l-49 177c-18,31 -448,-28 -466,59 -16,76 217,198 285,228 17,7 53,23 69,32 -8,16 -11,43 -15,59 -5,21 -10,40 -15,62 -16,74 -87,323 -32,356 44,26 138,-70 172,-109 41,-48 130,-158 159,-208 41,24 77,58 115,83l185 120c27,16 38,17 63,32 41,24 91,63 115,22 25,-42 -17,-116 -40,-173l-114 -277c43,-45 90,-68 153,-130 51,-50 123,-69 162,-135 54,-91 -210,-52 -239,-52l-169 7c-16,1 -43,5 -58,1 -19,-41 -25,-106 -41,-151 -6,-18 -13,-32 -19,-50 -11,-34 -23,-63 -28,-99 -6,-36 -11,-70 -52,-96 -21,10 -42,10 -58,37z"/>
  </g>
  <path class="fil1" d="M2218 474c41,-68 68,-274 130,-401 42,35 54,146 67,188 8,25 59,173 69,186 63,-6 413,-22 431,-15 -56,57 -170,140 -240,188 -36,25 -48,39 -72,84 12,31 33,67 45,100l77 199c10,27 26,76 30,101 -7,-1 -92,-49 -108,-58 -105,-64 -213,-180 -304,-219 -33,18 -106,126 -138,164 -46,57 -88,107 -138,149l-7 -27c0,-41 16,-123 23,-163 10,-61 28,-128 36,-190 6,-48 -1,-50 -51,-76 -68,-35 -265,-124 -284,-184 62,-35 141,-20 216,-22 38,-1 68,-6 108,-5 20,0 36,-2 54,-1l46 4c1,0 3,0 4,0l7 -1zm102 -437c-49,83 -59,121 -84,205l-49 177c-18,31 -448,-28 -466,59 -16,76 217,198 285,228 17,7 53,23 69,32 -8,16 -11,43 -15,59 -5,21 -10,40 -15,62 -16,74 -87,323 -32,356 44,26 138,-70 172,-109 41,-48 130,-158 159,-208 41,24 77,58 115,83l185 120c27,16 38,17 63,32 41,24 91,63 115,22 25,-42 -17,-116 -40,-173l-114 -277c43,-45 90,-68 153,-130 51,-50 123,-69 162,-135 54,-91 -210,-52 -239,-52l-169 7c-16,1 -43,5 -58,1 -19,-41 -25,-106 -41,-151 -6,-18 -13,-32 -19,-50 -11,-34 -23,-63 -28,-99 -6,-36 -11,-70 -52,-96 -21,10 -42,10 -58,37z"/>
 </g>
</svg>
