<?xml version="1.0" encoding="UTF-8"?>
<!DOCTYPE svg PUBLIC "-//W3C//DTD SVG 1.1//EN" "http://www.w3.org/Graphics/SVG/1.1/DTD/svg11.dtd">
<!-- Creator: CorelDRAW X6 -->
<svg xmlns="http://www.w3.org/2000/svg" xml:space="preserve" width="1.89011in" height="1.46755in" version="1.1" style="shape-rendering:geometricPrecision; text-rendering:geometricPrecision; image-rendering:optimizeQuality; fill-rule:evenodd; clip-rule:evenodd"
viewBox="0 0 1755 1363"
 xmlns:xlink="http://www.w3.org/1999/xlink">
 <defs>
  <style type="text/css">
   <![CDATA[
    .fil1 {fill:#4FBBB2}
    .fil0 {fill:#212B34;fill-rule:nonzero}
   ]]>
  </style>
 </defs>
 <g id="Layer_x0020_1">
  <metadata id="CorelCorpID_0Corel-Layer"/>
  <path class="fil0" d="M1003 1351c6,-1 18,0 35,0 41,1 110,3 186,-6 179,-21 398,-101 374,-389 -6,2 -12,4 -18,6 -34,9 -71,9 -107,1 -36,-8 -72,-23 -105,-44 -64,-41 -116,-102 -134,-169 -14,-52 6,-100 44,-130 20,-16 45,-26 73,-30 27,-3 57,1 86,15 74,35 146,134 169,331 0,1 0,2 0,4 27,-13 52,-35 71,-66 28,-44 57,-127 64,-224 7,-99 -9,-212 -73,-315 -64,-103 -175,-195 -358,-251 -195,-60 -472,-79 -861,-26l-1 -11c390,-53 669,-34 865,26 186,57 299,151 364,256 65,105 81,221 74,321 -7,99 -37,184 -66,229 -22,34 -49,57 -79,71 27,300 -198,382 -383,404 -77,9 -147,7 -188,6 -16,0 -28,-1 -34,0l-1 -11zm594 -406c0,-2 0,-5 -1,-7 -22,-193 -91,-288 -163,-322 -27,-13 -55,-17 -80,-14 -25,3 -49,13 -67,27 -35,27 -53,71 -40,118 17,64 67,123 129,162 32,20 66,35 101,43 35,8 70,8 102,-1 7,-2 13,-4 20,-7z"/>
  <g id="_1029431024">
   <polygon class="fil1" points="334,65 331,120 80,204 "/>
   <polygon class="fil1" points="442,97 2,237 0,239 446,232 555,167 "/>
   <polygon class="fil1" points="5,233 350,41 271,0 195,26 "/>
  </g>
 </g>
</svg>
